<mxfile host="app.diagrams.net" modified="2024-01-29T07:25:00.832Z" agent="Mozilla/5.0 (Windows NT 10.0; Win64; x64) AppleWebKit/537.36 (KHTML, like Gecko) Chrome/120.0.0.0 Safari/537.36 OPR/106.0.0.0" version="23.0.2" etag="oEkuJp1x0OQ7bCjIV4_M" type="github">
  <diagram name="Page-1" id="chgb_KiHqRxINc7wufbV">
    <mxGraphModel>
      <root>
        <mxCell id="0" />
        <mxCell id="1" parent="0" />
      </root>
    </mxGraphModel>
  </diagram>
</mxfile>
